<svg xmlns="http://www.w3.org/2000/svg" viewBox="0 0 46.66 46.66"><defs><style>.cls-1{fill:#9a1c51;}.cls-2{fill:#fff;}</style></defs><g id="Layer_2" data-name="Layer 2"><g id="Layer_1-2" data-name="Layer 1"><circle class="cls-1" cx="23.33" cy="23.33" r="23.33"/><path class="cls-2" d="M14.39,15.51a4.45,4.45,0,0,1,2.12.51,7.34,7.34,0,0,1,1.91,1.49,11.33,11.33,0,0,1,1.63,2.3,17.57,17.57,0,0,1,1.26,3c.4-.55.78-1.12,1.17-1.69s.72-1.14,1-1.7a13,13,0,0,0,.76-1.63,4.89,4.89,0,0,0,.32-1.44,1.86,1.86,0,0,0-.16-.91,1.29,1.29,0,0,0-1.13-.74,4,4,0,0,0-.77,0,2.57,2.57,0,0,0-.76.28,5.46,5.46,0,0,0-.92.55,5.69,5.69,0,0,0-.82.7,1.47,1.47,0,0,0-.41.76.48.48,0,0,1-.1.29c-.05,0-.1,0-.16-.16a1.29,1.29,0,0,1,.09-.78,4.43,4.43,0,0,1,.62-1.13A6.17,6.17,0,0,1,21.21,14a4.75,4.75,0,0,1,1.66-.86A5.31,5.31,0,0,1,23.93,13a3.63,3.63,0,0,1,1.19.05,2,2,0,0,1,1,.51,1.61,1.61,0,0,1,.43,1.15,5.32,5.32,0,0,1-.41,2.18,14.5,14.5,0,0,1-1.2,2.3c-.5.78-1,1.55-1.64,2.31s-1.17,1.48-1.72,2.16a22,22,0,0,1,.68,3.21,27.87,27.87,0,0,1,.27,3.47c.42-.92.91-1.87,1.48-2.87s1.18-2,1.85-3,1.39-2,2.14-3,1.52-1.91,2.31-2.79,1.59-1.7,2.4-2.45a20.79,20.79,0,0,1,2.39-1.94A11.65,11.65,0,0,1,37.36,13a5.38,5.38,0,0,1,2.09-.44c.57,0,.86.09.85.24s-.28.3-.79.47a12,12,0,0,0-2.83,1.35,19.06,19.06,0,0,0-2.64,2,26,26,0,0,0-2.45,2.56c-.79.94-1.54,1.91-2.25,2.92s-1.39,2-2,3.1-1.25,2.09-1.82,3.1-1.08,2-1.57,2.94-.93,1.81-1.33,2.61q-.14.27-.27.51c-.09.16-.17.3-.26.44a6.87,6.87,0,0,1-.47.82c-.17.26-.32.46-.42.6a1.54,1.54,0,0,1-.35.32.21.21,0,0,1-.2.05c-.07,0-.12-.12-.13-.28a3.13,3.13,0,0,1,0-.52c0-.74.07-1.52.07-2.34s0-1.65-.08-2.51-.13-1.72-.23-2.59-.23-1.72-.38-2.55a6.37,6.37,0,0,0-.57,1,1.35,1.35,0,0,0-.16.76,12.38,12.38,0,0,1-2.14-1,16,16,0,0,1-2-1.33,14.39,14.39,0,0,1-1.72-1.57A12.08,12.08,0,0,1,12,22a7.67,7.67,0,0,1-.87-1.71,4.26,4.26,0,0,1-.28-1.64,3.16,3.16,0,0,1,.95-2.12,3.46,3.46,0,0,1,1.1-.73A4.16,4.16,0,0,1,14.39,15.51Zm.33,1.69a3.06,3.06,0,0,0-1,.25,2.36,2.36,0,0,0-.7.46,2,2,0,0,0-.42.62,1.77,1.77,0,0,0-.16.66,2.88,2.88,0,0,0,.25,1.32A7.17,7.17,0,0,0,13.5,22a15,15,0,0,0,1.17,1.46A17.25,17.25,0,0,0,16,24.76a14.34,14.34,0,0,0,1.39,1.09,7,7,0,0,0,1.24.72,8.33,8.33,0,0,1,.44-.74c.19-.27.39-.57.62-.88a28.26,28.26,0,0,0-.83-3.12,14.07,14.07,0,0,0-1.11-2.51,5.72,5.72,0,0,0-1.4-1.63A2.39,2.39,0,0,0,14.72,17.2Z"/><path class="cls-2" d="M21.27,34.79c0-.43,0-.87,0-1.33,0-.82,0-1.69-.08-2.56s-.13-1.74-.23-2.62-.24-1.75-.39-2.6l-.1-.56h0l-.06-.31L20.27,24l0,0c-.2-.83-.42-1.63-.68-2.39A13.84,13.84,0,0,0,18.4,19a6.47,6.47,0,0,0-1.58-1.84A3.11,3.11,0,0,0,15,16.48l-.3,0a3.65,3.65,0,0,0-1.2.3,3,3,0,0,0-.91.61,2.68,2.68,0,0,0-.79,1.74A3.46,3.46,0,0,0,12,20.5a4.22,4.22,0,0,1-.18-.45,3.85,3.85,0,0,1-.24-1.37,2.44,2.44,0,0,1,.2-.86,2.64,2.64,0,0,1,.54-.79,2.91,2.91,0,0,1,.88-.57,3.35,3.35,0,0,1,1.25-.24h0a3.67,3.67,0,0,1,1.75.44A6.38,6.38,0,0,1,17.91,18a10.23,10.23,0,0,1,1.51,2.15A17.1,17.1,0,0,1,20.64,23l.15.46h0l.1.35a22,22,0,0,1,.66,3.11,28.25,28.25,0,0,1,.26,3.39l1.36.28c.41-.9.9-1.85,1.45-2.82s1.17-2,1.83-3,1.37-2,2.1-2.95c.39-.5.78-1,1.19-1.48-.34.44-.66.88-1,1.33-.72,1-1.41,2.07-2.06,3.14S25.44,27,24.87,28s-1.09,2-1.58,3-.93,1.81-1.33,2.61L21.7,34q-.12.21-.24.39l0,0,0,0Zm3.89-17.51a4.75,4.75,0,0,0,.14-1,2.74,2.74,0,0,0-.23-1.25,2,2,0,0,0-.71-.82,2.23,2.23,0,0,0-1-.32h-.54l.26-.09a5,5,0,0,1,.93-.18l.37,0a2.32,2.32,0,0,1,.59.07,1.26,1.26,0,0,1,.65.33.92.92,0,0,1,.21.66,4.57,4.57,0,0,1-.36,1.88C25.37,16.81,25.27,17,25.16,17.28Z"/></g></g></svg>