<svg xmlns="http://www.w3.org/2000/svg" viewBox="0 0 46.66 46.66"><defs><style>.cls-1{fill:#fff;}.cls-2{fill:#9a1c51;}</style></defs><g id="Layer_2" data-name="Layer 2"><g id="Layer_1-2" data-name="Layer 1"><circle class="cls-1" cx="23.33" cy="23.33" r="23.33"/><path class="cls-2" d="M18.91,22.6a7.58,7.58,0,1,1,9.61-11.68,7.33,7.33,0,0,1,2.36,6,7.49,7.49,0,0,1-3.12,5.66c.54.21,1.06.38,1.55.61a12.3,12.3,0,0,1,7.26,11.19.91.91,0,0,1-1,1H11.08a.94.94,0,0,1-1-1,12.33,12.33,0,0,1,7.58-11.31ZM12,33.45H34.61s0-.05,0-.07,0-.23,0-.35a10.2,10.2,0,0,0-4.1-7,9.89,9.89,0,0,0-5.45-2,17.21,17.21,0,0,0-4.59.15,10.24,10.24,0,0,0-7.55,6A9.53,9.53,0,0,0,12,33.45ZM23.35,22.12a5.68,5.68,0,1,0-5.69-5.61A5.7,5.7,0,0,0,23.35,22.12Z"/></g></g></svg>