<svg xmlns="http://www.w3.org/2000/svg" viewBox="0 0 722.3 485.93"><defs><style>.cls-1{fill:#9a1c51;}.cls-2{fill:#fff;}.cls-3{fill:none;stroke:#fff;stroke-miterlimit:10;stroke-width:7px;}</style></defs><g id="Layer_2" data-name="Layer 2"><g id="Layer_1-2" data-name="Layer 1"><path class="cls-1" d="M688.81,484.93,522.19,411a1.86,1.86,0,0,0-2.59,1.32c-1.86,9.6-8.86,14.74-16.53,19.13-16.11,9.2-33.89,13.7-51.88,17.21a486.84,486.84,0,0,1-87.58,9.2c-15.32.18-30.69.79-46-.13-33.42-2-66.07-7.87-96.2-23.56-8.37-4.36-16.31-9.54-22.07-17.17-3-4-5.27-8.69-8.17-13.75a1.9,1.9,0,0,0-1.53-.94c-5.64-.29-12.35-.49-19-1.07-30-2.6-58.63-9.6-82.5-29.29-11.68-9.63-19.67-21.67-18-37.75.49-4.74,2.14-9.37,3.49-14.27a1.88,1.88,0,0,0-1.26-2.28c-3.94-1.21-8.35-2.46-12.6-4.09-21.79-8.35-40.46-20.73-52-41.77-12.52-22.84-9.58-49.28,6.88-69.55,11.83-14.59,27-24.07,44.13-31,.2-.07.39-.16.59-.25a1.86,1.86,0,0,0,1-2.29c-6.16-19.29-3.76-37.59,6.64-54.78,10.67-17.61,26.24-30,44.2-39.53a182.09,182.09,0,0,1,44.87-16.55c1.29-.3,3-1.57,3.35-2.73,5-17.95,17.62-29.39,33.06-38.11C211.49,6.21,232.18,1.39,254,.27c22.9-1.18,45.2,1.37,66.25,10.43C330.12,15,339,21.62,348.35,27.09c1.23.71,3.14,1.51,4.2,1.05C377.13,17.4,402.82,12.2,429.6,11.22c34.93-1.28,68.47,3.94,100.09,19.28A107.26,107.26,0,0,1,559.93,52a6.06,6.06,0,0,0,4.51,1.44c29.4-3.48,57.22.21,81.79,18.17,10.69,7.82,18.82,17.78,21.22,31.13,1,5.52.39,11.39,0,17-.21,2.73-.41,4.08,2.8,5.19,15.34,5.27,28.85,13.34,38.47,26.87a38.44,38.44,0,0,1,.64,44.28c-1.74,2.6-1.83,4.29.06,7.07,19.08,28.09,17,60.47-6.06,85.43-8.07,8.73-17.72,16-26.58,24-1,.89-2.31,2.29-2.22,3.35,1,11.15-.79,21.49-8.43,30.18A53.37,53.37,0,0,1,639,362.87c-9.46,2.43-19.22,3.71-28.84,5.49h0a1.86,1.86,0,0,0-1,3.11L701,467.62C709.14,476.16,699.61,489.72,688.81,484.93Z"/><path class="cls-2" d="M250,281.23a33.74,33.74,0,0,0,6.47-8.14A57.83,57.83,0,0,0,261.57,262a60.32,60.32,0,0,0,2.73-12.34,38.07,38.07,0,0,0-.46-12,24.09,24.09,0,0,0-4.5-10,18.43,18.43,0,0,0-9.3-6.27q-3.14,10.51-5.16,20.53a134.29,134.29,0,0,0-2.53,18.6,131,131,0,0,0-.2,16.08,115.83,115.83,0,0,0,1.32,12.69,44,44,0,0,0,2.22,8.74c.88,2.23,1.79,3.64,2.73,4.25q-5.05-1.51-9.2-7.08l1.72.41A4.6,4.6,0,0,1,243,296.7a15.69,15.69,0,0,1,2,2l1.67,2a3.88,3.88,0,0,0,1.27,1.12q-8.19-1-17.85-3.14t-19.77-5.31a212.29,212.29,0,0,1-20.12-7.48,152.4,152.4,0,0,1-19-9.76q-4.75,4.86-9.45,8.8a75,75,0,0,1-9.2,6.67,44.33,44.33,0,0,1-8.9,4.2,23.12,23.12,0,0,1-8.54,1.26,19.34,19.34,0,0,1-9.36-2.47,22.69,22.69,0,0,1-6.21-5.36,21.27,21.27,0,0,1-3.54-6.42A23.4,23.4,0,0,1,114.7,277a6.07,6.07,0,0,1,.51-3.49c.44-.67,1-.47,1.77.61,2.76,3.58,5.73,5.93,8.89,7.08a17.58,17.58,0,0,0,10,.55,33.21,33.21,0,0,0,11-4.9,88.88,88.88,0,0,0,11.77-9.4,91.63,91.63,0,0,1-9.8-9.2A60.35,60.35,0,0,1,141.19,248a51.49,51.49,0,0,1-4.95-11.52,45.28,45.28,0,0,1-1.77-12.74,30.19,30.19,0,0,1,2.27-12.19,31.41,31.41,0,0,1,6.53-10,28.85,28.85,0,0,1,9.8-6.57,30.63,30.63,0,0,1,12.24-2.22,28.88,28.88,0,0,1,11.22,2.47,31.47,31.47,0,0,1,8.85,6.07,44.86,44.86,0,0,1,7,8.9A95.68,95.68,0,0,1,198,221.07q6.47-8.4,13-16.89t13.14-16.48q6.58-8,13.15-15.16t13-12.95A103.64,103.64,0,0,1,263,149.73a48.69,48.69,0,0,1,12.39-5.91c.33-.07,1.11-.2,2.32-.4a13.08,13.08,0,0,1,3.64-.11,4.81,4.81,0,0,1,2.94,1.32q1.11,1.11.3,3.84a2.29,2.29,0,0,1-.71,1.11.34.34,0,0,1-.1.41,44.86,44.86,0,0,0-7.08,8.9,150.9,150.9,0,0,0-7.88,14q-4.05,8-8,17.64t-7.38,19.72a27.14,27.14,0,0,1,10.16,5.16,26.13,26.13,0,0,1,6.47,8,29.71,29.71,0,0,1,3.08,9.91,44.21,44.21,0,0,1,.05,11,51.63,51.63,0,0,1-2.62,11.18,56.72,56.72,0,0,1-5,10.46,47,47,0,0,1-7,8.9A35.39,35.39,0,0,1,250,281.23Zm-56.32-54.6q-1.92-3.84-4-7.23a43.66,43.66,0,0,0-4.6-6.12,28.45,28.45,0,0,0-5.41-4.65,19.88,19.88,0,0,0-6.47-2.73q-6.18-1.52-10.52.31a17,17,0,0,0-7.08,5.35,23.44,23.44,0,0,0-4,8,33.34,33.34,0,0,0-1.37,8.19,35.91,35.91,0,0,0,5.26,16.18,72.24,72.24,0,0,0,11.93,14.66q6.38-7,12.89-15.07T193.72,226.63Zm-15,41.25a152.66,152.66,0,0,0,16,10.06q8.4,4.6,16.48,8.09t15.37,5.82a107.84,107.84,0,0,0,12.64,3.33,41.25,41.25,0,0,1-6.72-14.25,59.92,59.92,0,0,1-1.67-20.43,126.44,126.44,0,0,1,2.88-19.77q2.28-10.15,5.61-20.27a20.19,20.19,0,0,0-7.68,3.09,29.71,29.71,0,0,0-6.63,6,36.57,36.57,0,0,0-5.1,8.19,43.42,43.42,0,0,0-3.14,9.61,44,44,0,0,0-.81,10.31A34.21,34.21,0,0,0,218,268a17.66,17.66,0,0,0,1.92,2.53c.54.74,1,1.38,1.46,1.92a8.32,8.32,0,0,1,.76,1c0,.27-.45.31-1.36.1a7,7,0,0,1-3-1.71,32.56,32.56,0,0,1-5.36-6,66,66,0,0,1-4.55-7.48q-2.13-4-4-8.44t-3.74-8.85q-5.35,7.28-10.67,14T178.76,267.88Zm25.07-32q2.13,5.76,4.2,11.27t4.4,10.67a42.22,42.22,0,0,1-.46-10.06,52.41,52.41,0,0,1,1.87-10.77A53.25,53.25,0,0,1,218,226.58a37.43,37.43,0,0,1,6.37-8.85,32,32,0,0,1,8.54-6.27,24.27,24.27,0,0,1,10.67-2.52q3.84-10,8.24-19.22T260.45,173q4.24-7.53,8.09-13a57.66,57.66,0,0,1,6.57-8.09,30.32,30.32,0,0,0-9.75,5.61,98.36,98.36,0,0,0-10.87,10.42q-5.67,6.21-11.78,14.15t-12.49,16.78q-6.37,8.85-13,18.25T203.83,235.83Z"/><path class="cls-2" d="M136.08,292.13l-.76,0a14.62,14.62,0,0,1-7-1.77,17.79,17.79,0,0,1-4.87-4.17c-.2-.25-.39-.51-.58-.77.44.19.88.37,1.32.53a22.1,22.1,0,0,0,7.55,1.32,24.24,24.24,0,0,0,5.24-.58,38.46,38.46,0,0,0,12.63-5.61,93.37,93.37,0,0,0,12.46-9.93l4.2-3.92-4.47-3.62a86.45,86.45,0,0,1-9.27-8.69,55.56,55.56,0,0,1-7-9.46A46.45,46.45,0,0,1,141,235a40.56,40.56,0,0,1-1.57-11.34,25.48,25.48,0,0,1,1.89-10.27,26.52,26.52,0,0,1,5.48-8.38,23.9,23.9,0,0,1,8.14-5.44,25.59,25.59,0,0,1,9.79-1.86h.46a24,24,0,0,1,9.22,2,27,27,0,0,1,5.06,3,25.34,25.34,0,0,0-5.2-1.79,26.54,26.54,0,0,0-6.35-.82,18.67,18.67,0,0,0-7.21,1.38,22.22,22.22,0,0,0-9.11,6.92,28.51,28.51,0,0,0-4.84,9.68,38.31,38.31,0,0,0-1.56,9.42v.24l0,.25a40.94,40.94,0,0,0,6,18.41A77.54,77.54,0,0,0,164,262.19l3.7,3.55,3.45-3.79c4.31-4.71,8.71-9.86,13.1-15.3,4.26-5.29,8.79-11,13.44-16.94l2-2.49,0-.06,2.35-3q6.47-8.38,13-16.88c4.34-5.6,8.73-11.11,13.06-16.36s8.69-10.3,13-15l1.51-1.64q-1.86,2.31-3.75,4.77c-4.09,5.31-8.33,11-12.59,16.91s-8.67,12.12-13,18.3-8.86,12.47-13.35,18.64l-1.57,2.16,0,.1-2.19,3c-3.54,4.82-7.1,9.49-10.56,13.87s-7,8.6-10.49,12.58l-3.66,4.14,4.48,3.23c2.92,2.1,5.95,4.12,9.06,6.05-3.84-1.89-7.56-3.93-11.12-6.09l-3.4-2.06-2.77,2.84c-3,3.1-6.1,5.95-9.09,8.46a69.35,69.35,0,0,1-8.59,6.23A39.15,39.15,0,0,1,142,291.1,19.07,19.07,0,0,1,136.08,292.13Zm101.23-12.56a55.31,55.31,0,0,1-1.49-18.72,122.26,122.26,0,0,1,2.77-19c1.47-6.59,3.32-13.25,5.48-19.8l2.62-7.93-8.23,1.44a24.45,24.45,0,0,0-5.57,1.67c.73-.46,1.49-.89,2.26-1.28a19.21,19.21,0,0,1,8.5-2l3.38-.05.09-.24,5,1.42a22.1,22.1,0,0,1,8.31,4.18,21.21,21.21,0,0,1,5.26,6.47,25.08,25.08,0,0,1,2.56,8.25l.12,1.06a28.87,28.87,0,0,0-5.05-10.42,23.51,23.51,0,0,0-11.74-8L246.71,215l-1.46,4.9c-2.13,7.13-3.9,14.18-5.27,21a139.19,139.19,0,0,0-2.62,19.3,136.08,136.08,0,0,0-.2,16.65q.08,1.44.18,2.82Zm37.58-130.3c.58-.22,1.15-.41,1.72-.59l1.4-.24-.11.11.1.23q-1,1.09-2,2.4Z"/><path class="cls-2" d="M267.43,265.76a20.73,20.73,0,0,1,2.83-8.54,18,18,0,0,1,6-6.42q4.54-6.37,9.15-12.75t10.06-12.74q1.6-2,3.08-4c1-1.35,2-2.69,3.19-4s2.46-2.77,3.94-4.25a57,57,0,0,1,5.36-4.65,32.82,32.82,0,0,1,3.23,1.77,24.29,24.29,0,0,1,3.44,2.48,7.23,7.23,0,0,1,2.07,2.67,1.86,1.86,0,0,1-.85,2.38l-2.53,2.22a12.14,12.14,0,0,0-1.57,1.67l-1.42,1.87c-.5.68-1.16,1.56-2,2.63a29.39,29.39,0,0,0-4.45,8.34,42.06,42.06,0,0,0-1.87,8.8q-.45,4.5-.45,9.05c0,3,0,6.07-.1,9.1a21.59,21.59,0,0,1-6.83,14.61A19.34,19.34,0,0,1,291,280a21,21,0,0,1-8.14,1.16,22.06,22.06,0,0,1-7.43-1.67,14.45,14.45,0,0,1-5-3.44,12,12,0,0,1-2.63-4.7A14.66,14.66,0,0,1,267.43,265.76Zm30.94-37.82a108.3,108.3,0,0,0-8.24,10.32Q286,244,282.5,249.18a8.06,8.06,0,0,1,3.43.7c.21.34.54,1,1,2a32.76,32.76,0,0,1,1.32,3.18,25.14,25.14,0,0,1,.91,3.19c.2,1,.17,1.56-.1,1.77a6.68,6.68,0,0,0-3.44-1.52,11.65,11.65,0,0,0-4.15.15,13.78,13.78,0,0,0-4,1.57,10.73,10.73,0,0,0-3.19,2.78,8,8,0,0,0-1.56,3.74,7.45,7.45,0,0,0,.81,4.4,8.54,8.54,0,0,0,3.64,3.49,12.38,12.38,0,0,0,4.55,1.46,8.67,8.67,0,0,0,4.6-.76,9.76,9.76,0,0,0,3.38-2.73,13.54,13.54,0,0,0,2.23-4,19,19,0,0,0,1-4.8,74.47,74.47,0,0,0,.15-8.24q-.15-4.31.05-8.8a49.29,49.29,0,0,1,1.32-9.2A34.91,34.91,0,0,1,298.37,227.94Z"/><path class="cls-2" d="M297,269a23.47,23.47,0,0,0,.89-4.85,80.15,80.15,0,0,0,.17-8.82c-.1-2.73-.08-5.55.05-8.39a45.25,45.25,0,0,1,1.18-8.28,30.5,30.5,0,0,1,3.4-8.19l-3.13-2.3c1.06-1.33,2.07-2.66,3-4s1.88-2.48,2.95-3.74,2.29-2.57,3.66-3.94c.71-.71,1.51-1.44,2.38-2.2l.1.06c.68.41,1.31.84,1.9,1.28l-.51.46a16.84,16.84,0,0,0-2.22,2.36c-.45.59-.93,1.22-1.44,1.91l-2,2.63a34.45,34.45,0,0,0-5.2,9.78,46.67,46.67,0,0,0-2.09,9.86,94.83,94.83,0,0,0-.48,9.55c0,2.88,0,5.86-.1,8.87a16.93,16.93,0,0,1-1.61,6.26A14.65,14.65,0,0,1,297,269Z"/><path class="cls-2" d="M383.61,245.64q-3.54,5-7.89,11a95.7,95.7,0,0,1-9.61,11.32,56.06,56.06,0,0,1-11.32,8.9,25,25,0,0,1-12.94,3.59,14.89,14.89,0,0,1-7.74-2.17,17.35,17.35,0,0,1-5.41-5.41,22.29,22.29,0,0,1-3-7.54,27.36,27.36,0,0,1-.35-8.64,104.65,104.65,0,0,0-4.2,11.07,85,85,0,0,0-2.78,11.68c-.14.61-.64.79-1.52.56a10.06,10.06,0,0,1-2.78-1.32,14.46,14.46,0,0,1-2.68-2.27,3.72,3.72,0,0,1-1.21-2.33,69.1,69.1,0,0,1,3.74-15.37,152.79,152.79,0,0,1,6.72-15.62q3.9-7.83,8.45-15.67l9-15.52q2.52-4.35,4.95-8.85t4.6-8.75q2.18-4.25,3.89-8.14c1.15-2.59,2.09-5,2.83-7.12a4,4,0,0,1,3.39.1,12.19,12.19,0,0,1,3.79,2.37,11.12,11.12,0,0,1,2.68,3.74,4.94,4.94,0,0,1,.05,4.2A42,42,0,0,1,362,194q-1.73,3-4,6.93t-4.85,8.24q-2.58,4.35-5,8.29l-10,16.38q2.92-3,6.16-5.92a61.06,61.06,0,0,1,6.63-5.15,36.47,36.47,0,0,1,6.92-3.69,22,22,0,0,1,7-1.62,4.66,4.66,0,0,1,3,1,10.09,10.09,0,0,1,2.58,2.63,9.79,9.79,0,0,1,1.47,3.33,4.64,4.64,0,0,1-.31,3.19,72.54,72.54,0,0,1-4.45,8.19c-1.61,2.56-3.17,5-4.65,7.28s-2.79,4.42-3.94,6.37a16,16,0,0,0-2.12,5.36,15.61,15.61,0,0,1-6.42-4.05,10.84,10.84,0,0,1-2.48-4.6,8,8,0,0,1,.1-4.19,9.17,9.17,0,0,1,1.31-2.83A115.71,115.71,0,0,0,356.25,229q2.08-3.39,1.57-4c-.34-.44-1.46-.05-3.38,1.16a87.68,87.68,0,0,0-7.54,5.56L341.8,236q-2.39,2-4.6,4.25-5.46,7.18-6.37,13a17.12,17.12,0,0,0,1,9.91,13.44,13.44,0,0,0,5.66,6.27,15.72,15.72,0,0,0,7.94,2.17,23.12,23.12,0,0,0,10.92-2.93,46.73,46.73,0,0,0,9.6-7,77.6,77.6,0,0,0,8.24-9.1q3.8-4.89,6.83-9.05a1.85,1.85,0,0,1,1.21-.7,1.59,1.59,0,0,1,1.21.25,1.66,1.66,0,0,1,.66,1.06A1.89,1.89,0,0,1,383.61,245.64Z"/><path class="cls-2" d="M320.87,254.65c1.3-3.11,2.72-6.25,4.27-9.37,2.53-5.09,5.32-10.27,8.29-15.38l9-15.53c1.71-2.93,3.4-6,5-9s3.14-5.89,4.65-8.84,2.84-5.73,4-8.39c.52-1.2,1-2.36,1.46-3.48a7,7,0,0,1,.61.5,6,6,0,0,1,1.47,2.07.82.82,0,0,1,.05.14l-.07.17a35.9,35.9,0,0,1-2,3.94q-1.71,3-4,6.87t-4.84,8.22c-1.7,2.87-3.37,5.64-5,8.22l-10,16.39,3.12,2.42c-1.12,1-2.23,2-3.3,3.12l-.24.24-.21.27c-4.18,5.51-6.58,10.5-7.32,15.25a27.49,27.49,0,0,0-.34,3.42Zm32.93-7.19a6.07,6.07,0,0,1-1.41-2.45,3,3,0,0,1,0-1.61,6.68,6.68,0,0,1,.52-1.31,118.52,118.52,0,0,0,7.62-10.48c1.32-2.15,3.44-5.62,1.85-8.78a16.08,16.08,0,0,1,2.52-.4l.07,0a5.07,5.07,0,0,1,1.31,1.34,4.88,4.88,0,0,1,.73,1.66v0a68.67,68.67,0,0,1-4.11,7.56q-2.41,3.83-4.63,7.23c-1.51,2.35-2.88,4.56-4,6.56-.13.22-.26.44-.38.66Z"/><path class="cls-2" d="M449.42,154.44a31,31,0,0,1,15,3.64,50.21,50.21,0,0,1,13.45,10.46,79.22,79.22,0,0,1,11.42,16.18,124.93,124.93,0,0,1,8.9,20.78q4.14-5.87,8.19-11.93t7.28-12a89.1,89.1,0,0,0,5.31-11.42A33.06,33.06,0,0,0,521.21,160a13.47,13.47,0,0,0-1.11-6.37,9.16,9.16,0,0,0-3.24-3.74,9.69,9.69,0,0,0-4.69-1.52,24.67,24.67,0,0,0-5.42.2,19.41,19.41,0,0,0-5.41,1.92,46.71,46.71,0,0,0-6.47,3.9,38.17,38.17,0,0,0-5.71,5,10.24,10.24,0,0,0-2.93,5.31c-.14,1.15-.37,1.82-.71,2s-.71-.17-1.11-1.11q-.62-1.73.66-5.46a29.92,29.92,0,0,1,4.34-7.94,44.22,44.22,0,0,1,8-8.14A35.08,35.08,0,0,1,509.08,138a39.17,39.17,0,0,1,7.48-1.52,25.85,25.85,0,0,1,8.4.35,14.19,14.19,0,0,1,6.92,3.59q2.88,2.73,3.09,8.09A36.86,36.86,0,0,1,532,163.79,100.07,100.07,0,0,1,523.59,180q-5.21,8.19-11.53,16.23T500,211.46a163.49,163.49,0,0,1,4.8,22.6,195.9,195.9,0,0,1,1.87,24.42q4.46-9.71,10.42-20.22t13-21.19q7.08-10.66,15-21t16.28-19.66q8.34-9.3,16.88-17.24a152.66,152.66,0,0,1,16.79-13.65,84.16,84.16,0,0,1,16-8.9,37.35,37.35,0,0,1,14.66-3.08c4,.06,6,.62,6,1.67s-1.92,2.14-5.56,3.28A87.06,87.06,0,0,0,606.3,148a136.86,136.86,0,0,0-18.61,14.36,191.51,191.51,0,0,0-17.23,18.05q-8.3,9.85-15.83,20.53t-14.31,21.79q-6.77,11.12-12.74,21.84T516.51,265.2q-5.1,10-9.35,18.35c-.67,1.28-1.32,2.48-1.92,3.59s-1.22,2.14-1.82,3.09a50.58,50.58,0,0,1-3.29,5.76c-1.25,1.89-2.24,3.3-3,4.25a12.35,12.35,0,0,1-2.43,2.27,1.71,1.71,0,0,1-1.41.36c-.54-.21-.85-.86-.91-2a22.4,22.4,0,0,1,.1-3.7q.5-7.79.5-16.43t-.55-17.69q-.56-9-1.62-18.2t-2.68-17.95a50.57,50.57,0,0,0-4,7.08,10,10,0,0,0-1.12,5.36,87.92,87.92,0,0,1-15.06-6.83,115.73,115.73,0,0,1-14-9.35,100.84,100.84,0,0,1-12.08-11.07,93.44,93.44,0,0,1-9.45-12,55.87,55.87,0,0,1-6.12-12.08,31,31,0,0,1-1.92-11.48,21,21,0,0,1,1.82-7.89,22.71,22.71,0,0,1,4.85-7.07,24.28,24.28,0,0,1,7.74-5.11A27.81,27.81,0,0,1,449.42,154.44Zm2.33,11.93a22.3,22.3,0,0,0-6.88,1.72,16.3,16.3,0,0,0-4.9,3.28,14,14,0,0,0-3,4.3,12.74,12.74,0,0,0-1.11,4.65,21.07,21.07,0,0,0,1.71,9.3,51.26,51.26,0,0,0,5.62,10.22,102,102,0,0,0,8.24,10.26,121.87,121.87,0,0,0,9.6,9.45,110.81,110.81,0,0,0,9.76,7.69,52.12,52.12,0,0,0,8.75,5,56.83,56.83,0,0,1,3.13-5.21q1.92-2.88,4.35-6.21a189.52,189.52,0,0,0-5.87-22,93.22,93.22,0,0,0-7.83-17.64,38.75,38.75,0,0,0-9.81-11.47A16.45,16.45,0,0,0,451.75,166.37Z"/><path class="cls-2" d="M497.85,290.11c.1-3,.15-6.15.15-9.34,0-5.82-.19-11.88-.56-18s-.93-12.31-1.64-18.47S494.16,232,493.07,226l-.73-4,0,0s-.46-2.21-.46-2.23l-1.08-5.9-.17.25c-1.38-5.89-3-11.52-4.76-16.81a98.4,98.4,0,0,0-8.27-18.6,43.89,43.89,0,0,0-11.12-12.93,21.57,21.57,0,0,0-13.13-4.51c-.69,0-1.41,0-2.11.1a27.55,27.55,0,0,0-8.45,2.13,21.27,21.27,0,0,0-6.39,4.32,18.81,18.81,0,0,0-4,5.84,18.14,18.14,0,0,0-1.52,6.35,25,25,0,0,0,1.37,9.54q-.71-1.6-1.26-3.18a26,26,0,0,1-1.64-9.62,16.14,16.14,0,0,1,1.4-6.08,17.71,17.71,0,0,1,3.81-5.54,19.51,19.51,0,0,1,6.17-4.05,23.17,23.17,0,0,1,8.78-1.66h.32a26,26,0,0,1,12.25,3.08,45.44,45.44,0,0,1,12.1,9.44,74.54,74.54,0,0,1,10.69,15.16,120.82,120.82,0,0,1,8.54,20l1.08,3.25,0,0,.73,2.49a160.33,160.33,0,0,1,4.65,21.91,191.84,191.84,0,0,1,1.82,23.8l9.55,2c2.9-6.32,6.33-13,10.22-19.84s8.21-13.88,12.86-20.88,9.64-14,14.82-20.76c2.72-3.55,5.5-7,8.32-10.43-2.35,3.07-4.64,6.2-6.88,9.36-5,7.15-9.92,14.58-14.49,22.07s-8.87,14.89-12.83,22-7.7,14.08-11.16,20.82-6.53,12.77-9.36,18.37c-.63,1.2-1.26,2.37-1.85,3.47s-1.1,1.93-1.64,2.76l-.16.26-.14.27C498.58,288.74,498.23,289.43,497.85,290.11ZM525.2,166.9a34.26,34.26,0,0,0,1-6.68,18.64,18.64,0,0,0-1.63-8.82,14.34,14.34,0,0,0-5-5.71,14.89,14.89,0,0,0-7.05-2.31c-.71,0-1.44-.08-2.16-.08-.54,0-1.08,0-1.62,0,.59-.22,1.2-.43,1.82-.62a34.35,34.35,0,0,1,6.56-1.33,23.06,23.06,0,0,1,2.6-.15,20.65,20.65,0,0,1,4.18.43,9.33,9.33,0,0,1,4.53,2.33c.92.88,1.44,2.45,1.52,4.65a32.14,32.14,0,0,1-2.58,13.26Q526.4,164.4,525.2,166.9Z"/><path class="cls-3" d="M511.48,395.42,510.13,409c-.56,5.59-3.57,9.09-11.94,13.87-15.32,8.76-32.55,12.91-48.88,16.1a479,479,0,0,1-85.82,9c-3.4,0-6.8.1-10.2.16-5.29.1-11.29.21-17,.21-6.92,0-12.65-.15-18-.48-37.93-2.3-67.24-9.43-92.24-22.46-6.08-3.16-13.7-7.65-18.77-14.37a69.47,69.47,0,0,1-5.07-8.38c-.94-1.7-1.9-3.45-3-5.29l-2.68-4.57-5.29-.29c-1.77-.1-3.66-.18-5.62-.27-4.44-.2-9.37-.43-14.11-.84-34.2-3-58-11.31-77.08-27.07-11.15-9.2-15.62-18.18-14.49-29.15a53.41,53.41,0,0,1,2.13-9c.5-1.69,1.06-3.59,1.56-5.56l2.29-9-8.83-2.82c-1.38-.45-2.83-.88-4.32-1.34-3.17-.95-6.43-1.94-9.49-3.11C40.45,295.56,25.54,283.71,16.38,267c-10.37-18.9-8.11-41.35,5.89-58.6,9.74-12,22.51-20.92,40.17-28.06.57-.23,1.13-.48,1.76-.77l8.93-4-2.92-8.51c-5.74-16.71-4-32.89,5.21-48.07,8.68-14.33,21.9-26.09,40.4-35.94a173.27,173.27,0,0,1,42.45-15.65c4.08-.94,9.15-4.37,10.63-9.67,3.66-13.07,12.69-23.3,28.42-32.2,16.35-9.24,35.05-14.29,57.17-15.43,3.31-.17,6.58-.26,9.73-.26,19.6,0,36.64,3.24,52.11,9.9,5.87,2.53,11.49,6.12,17.45,9.91,3.11,2,6.32,4,9.62,5.94a17.2,17.2,0,0,0,8.4,2.53,11.62,11.62,0,0,0,4.7-1c22.55-9.85,46.58-15.12,73.47-16.1,3.22-.12,6.46-.18,9.64-.18,32.09,0,60.15,6,85.78,18.48a97.88,97.88,0,0,1,27.49,19.56,16,16,0,0,0,11,4.44,15.43,15.43,0,0,0,1.67-.1,153.1,153.1,0,0,1,17.93-1.11c22.23,0,40.84,5.7,56.9,17.45,10,7.28,15.62,15.43,17.33,24.92.68,3.77.31,8.47,0,13l-.13,1.73c-.89,11.5,6.88,14.18,9.44,15.05,15.26,5.25,26.27,12.88,33.68,23.32a29.36,29.36,0,0,1,.35,33.17c-3.92,6-3.86,12,.19,18,16.58,24.41,14.65,51.77-5.15,73.2a190,190,0,0,1-16.69,15.35c-3,2.59-6.19,5.27-9.26,8-4,3.58-5.78,7.46-5.43,11.52.87,10.07-1,17.1-6,22.82a43.46,43.46,0,0,1-22.17,13.62c-6.21,1.6-12.86,2.72-19.29,3.8-2.92.5-5.93,1-8.89,1.55-.33.06-.66.1-1.12.16l-.2,0-1.77.23-19.2,2.58L690.41,470.83a1.91,1.91,0,0,1-2.16,3.07Z"/></g></g></svg>